<svg xmlns="http://www.w3.org/2000/svg" xmlns:xlink="http://www.w3.org/1999/xlink" width="450" zoomAndPan="magnify" viewBox="0 0 337.5 225" height="300" preserveAspectRatio="xMidYMid meet" version="1.0"><defs><clipPath id="ffb50d6c7e"><path d="M 0 0.167969 L 337 0.167969 L 337 224.832031 L 0 224.832031 Z M 0 0.167969 " clip-rule="nonzero"/></clipPath></defs><g clip-path="url(#ffb50d6c7e)"><path fill="#ffffff" d="M 0 0.167969 L 337 0.167969 L 337 224.832031 L 0 224.832031 Z M 0 0.167969 " fill-opacity="1" fill-rule="nonzero"/><path fill="#ffffff" d="M 0 0.167969 L 337 0.167969 L 337 224.832031 L 0 224.832031 Z M 0 0.167969 " fill-opacity="1" fill-rule="nonzero"/></g><path stroke-linecap="round" transform="matrix(0.31455, 0, 0, 0.31455, 86.556369, 45.685919)" fill="none" stroke-linejoin="round" d="M -46.997112 -43.497131 C -46.997112 -43.497131 46.998841 43.494764 46.998841 43.494764 " stroke="#186f65" stroke-width="9" stroke-opacity="1" stroke-miterlimit="4"/><path stroke-linecap="round" transform="matrix(0.31455, 0, 0, 0.31455, 136.569778, 45.685919)" fill="none" stroke-linejoin="round" d="M 47.005884 -43.497131 C 47.005884 -43.497131 -47.002487 43.494764 -47.002487 43.494764 " stroke="#186f65" stroke-width="9" stroke-opacity="1" stroke-miterlimit="4"/><path stroke-linecap="round" transform="matrix(0.31455, 0, 0, 0.31455, -1.360298, -25.087781)" fill="none" stroke-linejoin="round" d="M 357.495534 181.502869 C 357.495534 181.502869 357.495534 268.494764 357.495534 268.494764 " stroke="#186f65" stroke-width="9" stroke-opacity="1" stroke-miterlimit="4"/><path fill="#c5dcc2" d="M 86.042969 140.222656 C 86.042969 140.222656 86.257812 186.769531 86.257812 186.769531 C 86.257812 186.769531 99.769531 186.851562 99.808594 195.171875 C 99.808594 195.171875 65.460938 195.332031 65.460938 195.332031 C 65.460938 195.332031 65.203125 140.320312 65.203125 140.320312 " fill-opacity="1" fill-rule="nonzero"/><path fill="#c5dcc2" d="M 141.675781 138.742188 C 141.675781 138.742188 141.890625 185.289062 141.890625 185.289062 C 141.890625 185.289062 155.402344 185.371094 155.441406 193.691406 C 155.441406 193.691406 121.09375 193.851562 121.09375 193.851562 C 121.09375 193.851562 120.835938 138.839844 120.835938 138.839844 " fill-opacity="1" fill-rule="nonzero"/><path fill="#c5dcc2" d="M 165.980469 83.117188 C 165.980469 83.117188 167.554688 71.480469 166.097656 44.667969 C 165.847656 40.101562 161.261719 36.5625 165.398438 35.070312 C 177.527344 30.691406 178.78125 49.65625 178.78125 49.65625 C 178.78125 49.65625 184.980469 76.972656 184.980469 76.972656 C 184.980469 76.972656 190.890625 97.910156 183.054688 102.667969 C 183.054688 102.667969 165.417969 110.0625 165.417969 110.0625 " fill-opacity="1" fill-rule="nonzero"/><path stroke-linecap="round" transform="matrix(0.31455, 0, 0, 0.31455, 172.05319, 71.016612)" fill="none" stroke-linejoin="round" d="M -17.704083 -72.94966 C -17.803431 -100.034502 -32.544242 -111.832118 -30.159882 -113.285088 C 7.195096 -136.035859 21.389491 -75.905273 21.389491 -75.905273 C 21.389491 -75.905273 50.101162 24.933297 50.101162 24.933297 C 50.101162 24.933297 67.896935 85.498532 42.972919 100.624317 C 42.972919 100.624317 -17.095574 124.13262 -17.095574 124.13262 " stroke="#186f65" stroke-width="10" stroke-opacity="1" stroke-miterlimit="4"/><path fill="#c5dcc2" d="M 46.292969 151.898438 C 46.292969 151.898438 141.84375 151.375 141.84375 151.375 C 153.191406 151.3125 162.339844 142.0625 162.28125 130.710938 C 162.28125 130.710938 161.828125 48.371094 161.828125 48.371094 C 161.765625 37.019531 152.515625 27.871094 141.164062 27.933594 C 141.164062 27.933594 45.613281 28.460938 45.613281 28.460938 C 34.265625 28.523438 25.117188 37.773438 25.179688 49.121094 C 25.179688 49.121094 25.632812 131.464844 25.632812 131.464844 C 25.695312 142.8125 34.945312 151.960938 46.292969 151.898438 Z M 46.292969 151.898438 " fill-opacity="1" fill-rule="nonzero"/><path stroke-linecap="round" transform="matrix(0.280266, 0.142803, -0.142803, 0.280266, 75.315297, 171.212963)" fill="none" stroke-linejoin="round" d="M -13.920509 -77.906209 C -13.920509 -77.906209 41.748338 34.30431 41.748338 34.30431 C 41.748338 34.30431 80.151646 15.029538 92.271025 38.541617 C 92.271025 38.541617 -4.803462 88.574981 -4.803462 88.574981 C -4.803462 88.574981 -73.569571 -46.46817 -73.569571 -46.46817 " stroke="#186f65" stroke-width="9" stroke-opacity="1" stroke-miterlimit="4"/><path stroke-linecap="round" transform="matrix(0.280266, 0.142803, -0.142803, 0.280266, 130.773555, 172.113503)" fill="none" stroke-linejoin="round" d="M -16.11858 -80.542968 C -16.11858 -80.542968 39.082896 27.166884 39.082896 27.166884 C 39.082896 27.166884 77.475139 7.89775 89.594518 31.409829 C 89.594518 31.409829 -7.468904 81.437556 -7.468904 81.437556 C -7.468904 81.437556 -75.34496 -50.49106 -75.34496 -50.49106 " stroke="#186f65" stroke-width="9" stroke-opacity="1" stroke-miterlimit="4"/><path stroke-linecap="round" transform="matrix(0.31455, 0, 0, 0.31455, 101.406575, 85.244947)" fill="none" stroke-linejoin="round" d="M -122.85768 196.899648 C -122.85768 196.899648 125.01644 195.533608 125.01644 195.533608 C 171.151328 195.285237 208.357283 157.66947 208.096494 111.534582 C 208.096494 111.534582 206.85464 -113.812301 206.85464 -113.812301 C 206.606269 -159.959607 168.990502 -197.153144 122.855614 -196.904773 C 122.855614 -196.904773 -125.018507 -195.538734 -125.018507 -195.538734 C -171.153395 -195.277944 -208.35935 -157.674596 -208.09856 -111.527289 C -208.09856 -111.527289 -206.856706 113.807176 -206.856706 113.807176 C -206.608335 159.954482 -168.992568 197.148019 -122.85768 196.899648 Z M -122.85768 196.899648 " stroke="#186f65" stroke-width="9" stroke-opacity="1" stroke-miterlimit="4"/><path fill="#186f65" d="M 149.644531 61.007812 C 149.648438 62.984375 151.253906 64.585938 153.234375 64.582031 C 155.210938 64.582031 156.8125 62.972656 156.808594 60.996094 C 156.808594 59.015625 155.199219 57.414062 153.222656 57.417969 C 151.242188 57.421875 149.640625 59.027344 149.644531 61.007812 Z M 149.644531 61.007812 " fill-opacity="1" fill-rule="nonzero"/><path fill="#186f65" d="M 107.183594 61.074219 C 107.1875 63.050781 108.792969 64.652344 110.773438 64.648438 C 112.75 64.648438 114.351562 63.039062 114.351562 61.0625 C 114.347656 59.082031 112.738281 57.480469 110.761719 57.484375 C 108.78125 57.488281 107.183594 59.09375 107.183594 61.074219 Z M 107.183594 61.074219 " fill-opacity="1" fill-rule="nonzero"/><path stroke-linecap="round" transform="matrix(0.307676, 0.0653986, -0.0653986, 0.307676, 132.844648, 76.263864)" fill="none" stroke-linejoin="round" d="M -15.930257 33.4178 C -15.930257 33.4178 -26.458016 13.932721 -1.194524 2.27829 C 27.123485 -10.774462 35.362293 9.768468 35.362293 9.768468 C 35.362293 9.768468 -11.756472 -23.280897 -15.930257 33.4178 Z M -15.930257 33.4178 " stroke="#186f65" stroke-width="8" stroke-opacity="1" stroke-miterlimit="4"/><path stroke-linecap="round" transform="matrix(0.280266, 0.142803, -0.142803, 0.280266, 108.518241, 54.41485)" fill="none" stroke-linejoin="round" d="M -9.496198 11.497944 C -9.496198 11.497944 -4.497472 -7.49547 9.501237 -11.506133 " stroke="#186f65" stroke-width="8" stroke-opacity="1" stroke-miterlimit="4"/><path stroke-linecap="round" transform="matrix(0.314358, 0.0109776, -0.0109776, 0.314358, 154.730886, 53.160285)" fill="none" stroke-linejoin="round" d="M -14.261829 -3.06867 C -14.261829 -3.06867 5.217417 -5.699799 14.251743 5.702539 " stroke="#186f65" stroke-width="8" stroke-opacity="1" stroke-miterlimit="4"/><path fill="#c5dcc2" d="M 33.070312 96.570312 C 33.070312 96.570312 26.234375 91.722656 26.234375 91.722656 C 26.234375 91.722656 36.285156 58.125 36.285156 58.125 C 36.285156 58.125 37.71875 46.9375 24.992188 44.839844 C 12.265625 42.742188 10.144531 56.917969 10.144531 56.917969 C 10.144531 56.917969 4.789062 89.71875 4.789062 89.71875 C 4.789062 89.71875 0.273438 108.308594 8.566406 112.222656 C 24.871094 119.914062 36.457031 122.785156 36.457031 122.785156 " fill-opacity="1" fill-rule="nonzero"/><path fill="#c5dcc2" d="M 35.28125 57.4375 C 35.28125 57.4375 25.234375 70.195312 25.234375 70.195312 C 25.234375 70.195312 22.796875 84.527344 22.796875 84.527344 C 22.796875 84.527344 32.429688 81.457031 32.429688 81.457031 C 32.429688 81.457031 38.457031 60.582031 35.28125 57.4375 Z M 35.28125 57.4375 " fill-opacity="1" fill-rule="nonzero"/><path stroke-linecap="round" transform="matrix(0.312827, -0.0328794, 0.0328794, 0.312827, 21.116094, 82.86665)" fill="none" stroke-linejoin="round" d="M 39.242662 36.305149 C 39.242662 36.305149 29.433014 30.554047 29.433014 30.554047 C 29.433014 30.554047 48.234583 -40.693282 48.234583 -40.693282 C 48.234583 -40.693282 57.039656 -69.936294 57.039656 -69.936294 C 57.039656 -69.936294 67.787942 -109.588971 28.2594 -120.449079 C -11.281492 -131.310484 -21.292566 -91.068359 -21.292566 -91.068359 C -21.292566 -91.068359 -50.009382 9.767316 -50.009382 9.767316 C -50.009382 9.767316 -67.788205 70.333419 -42.868756 85.464479 C 6.12504 115.213219 39.234844 131.305016 39.234844 131.305016 " stroke="#186f65" stroke-width="10" stroke-opacity="1" stroke-miterlimit="4"/><path fill="#c5dcc2" d="M 242.792969 111.308594 C 242.792969 102.859375 255.890625 96.007812 272.050781 96.007812 C 288.207031 96.007812 301.308594 102.859375 301.308594 111.308594 C 301.308594 111.308594 242.792969 111.308594 242.792969 111.308594 Z M 242.792969 111.308594 " fill-opacity="1" fill-rule="nonzero"/><path fill="#c5dcc2" d="M 316.238281 204.535156 C 316.238281 204.535156 232.898438 204.535156 232.898438 204.535156 C 228.191406 204.535156 224.371094 200.71875 224.371094 196.007812 C 224.371094 196.007812 224.371094 119.113281 224.371094 119.113281 C 224.371094 114.40625 228.191406 110.585938 232.898438 110.585938 C 232.898438 110.585938 316.238281 110.585938 316.238281 110.585938 C 320.945312 110.585938 324.761719 114.40625 324.761719 119.113281 C 324.761719 119.113281 324.761719 196.007812 324.761719 196.007812 C 324.761719 200.71875 320.945312 204.535156 316.238281 204.535156 Z M 316.238281 204.535156 " fill-opacity="1" fill-rule="nonzero"/><path fill="#c5dcc2" d="M 317.707031 95.472656 C 317.707031 95.472656 226.929688 95.472656 226.929688 95.472656 C 221.605469 95.472656 217.292969 91.15625 217.292969 85.835938 C 217.292969 85.835938 217.292969 29.953125 217.292969 29.953125 C 217.292969 24.628906 221.605469 20.316406 226.929688 20.316406 C 226.929688 20.316406 317.707031 20.316406 317.707031 20.316406 C 323.03125 20.316406 327.34375 24.628906 327.34375 29.953125 C 327.34375 29.953125 327.34375 85.835938 327.34375 85.835938 C 327.34375 91.15625 323.03125 95.472656 317.707031 95.472656 Z M 317.707031 95.472656 " fill-opacity="1" fill-rule="nonzero"/><path fill="#c5dcc2" d="M 311.800781 88.226562 C 311.800781 88.226562 232.265625 88.226562 232.265625 88.226562 C 229.480469 88.226562 227.226562 85.96875 227.226562 83.1875 C 227.226562 83.1875 227.226562 32.066406 227.226562 32.066406 C 227.226562 29.28125 229.480469 27.027344 232.265625 27.027344 C 232.265625 27.027344 311.800781 27.027344 311.800781 27.027344 C 314.582031 27.027344 316.835938 29.28125 316.835938 32.066406 C 316.835938 32.066406 316.835938 83.1875 316.835938 83.1875 C 316.835938 85.96875 314.582031 88.226562 311.800781 88.226562 Z M 311.800781 88.226562 " fill-opacity="1" fill-rule="nonzero"/><path stroke-linecap="round" transform="matrix(0.31455, 0, 0, 0.31455, 266.68175, 101.067131)" fill="none" stroke-linejoin="round" d="M -93.009028 24.325621 C -93.009028 -2.548107 -51.369653 -24.317813 0.00586029 -24.317813 C 51.368955 -24.317813 93.00833 -2.548107 93.00833 24.325621 C 93.00833 24.325621 -93.009028 24.325621 -93.009028 24.325621 Z M -93.009028 24.325621 " stroke="#186f65" stroke-width="8" stroke-opacity="1" stroke-miterlimit="4"/><path stroke-linecap="round" transform="matrix(0.31455, 0, 0, 0.31455, 266.682043, 156.226902)" fill="none" stroke-linejoin="round" d="M 132.47353 149.331902 C 132.47353 149.331902 -132.476087 149.331902 -132.476087 149.331902 C -147.440432 149.331902 -159.573348 137.198985 -159.573348 122.23464 C -159.573348 122.23464 -159.573348 -122.2368 -159.573348 -122.2368 C -159.573348 -137.201144 -147.440432 -149.334061 -132.476087 -149.334061 C -132.476087 -149.334061 132.47353 -149.334061 132.47353 -149.334061 C 147.437875 -149.334061 159.570792 -137.201144 159.570792 -122.2368 C 159.570792 -122.2368 159.570792 122.23464 159.570792 122.23464 C 159.570792 137.198985 147.437875 149.331902 132.47353 149.331902 Z M 132.47353 149.331902 " stroke="#186f65" stroke-width="8" stroke-opacity="1" stroke-miterlimit="4"/><path stroke-linecap="round" transform="matrix(0.31455, 0, 0, 0.31455, 266.950678, 55.30233)" fill="none" stroke-linejoin="round" d="M 144.298833 119.461462 C 144.298833 119.461462 -144.29569 119.461462 -144.29569 119.461462 C -161.222165 119.461462 -174.932236 105.75139 -174.932236 88.837335 C -174.932236 88.837335 -174.932236 -88.834762 -174.932236 -88.834762 C -174.932236 -105.748818 -161.222165 -119.471308 -144.29569 -119.471308 C -144.29569 -119.471308 144.298833 -119.471308 144.298833 -119.471308 C 161.212889 -119.471308 174.935379 -105.748818 174.935379 -88.834762 C 174.935379 -88.834762 174.935379 88.837335 174.935379 88.837335 C 174.935379 105.75139 161.212889 119.461462 144.298833 119.461462 Z M 144.298833 119.461462 " stroke="#186f65" stroke-width="8" stroke-opacity="1" stroke-miterlimit="4"/><path stroke-linecap="round" transform="matrix(0.31455, 0, 0, 0.31455, 266.662852, 55.033709)" fill="none" stroke-linejoin="round" d="M 126.424617 97.279048 C 126.424617 97.279048 -126.429339 97.279048 -126.429339 97.279048 C -135.271342 97.279048 -142.44926 90.113549 -142.44926 81.259128 C -142.44926 81.259128 -142.44926 -81.262346 -142.44926 -81.262346 C -142.44926 -90.104349 -135.271342 -97.282267 -126.429339 -97.282267 C -126.429339 -97.282267 126.424617 -97.282267 126.424617 -97.282267 C 135.279039 -97.282267 142.444538 -90.104349 142.444538 -81.262346 C 142.444538 -81.262346 142.444538 81.259128 142.444538 81.259128 C 142.444538 90.113549 135.279039 97.279048 126.424617 97.279048 Z M 126.424617 97.279048 " stroke="#186f65" stroke-width="8" stroke-opacity="1" stroke-miterlimit="4"/></svg>